# xmcd CD database file
#
# Track frame offsets:
#	150
#	26677
#	45202
#	65175
#	87712
#	102925
#	119685
#	138240
#	158607
#	182157
#	207097
#
# Disc length: 3185 seconds
#
# Revision: 5
# Processed by: cddbd v1.5.2PL0 Copyright (c) Steve Scherf et al.
# Submitted via: CDex 1.70beta2
#
DISCID=980c6f0b
DTITLE=Omega - Dream
DYEAR=1994
DGENRE=Rock
TTITLE0=Gyöngyhajú lány
TTITLE1=Naplemente
TTITLE2=Ballada a fegyverkovács fiáról
TTITLE3=Ülök a hóban
TTITLE4=Van egy szó
TTITLE5=Az éjszakai országúton
TTITLE6=Fekete pillangó
TTITLE7=A nyári éjek asszonya
TTITLE8=Ezüst esõ
TTITLE9=Tizenhat évesen
TTITLE10=Hajnali óceán
EXTD=YEAR: 1994
EXTT0=
EXTT1=
EXTT2=
EXTT3=
EXTT4=
EXTT5=
EXTT6=
EXTT7=
EXTT8=
EXTT9=
EXTT10=
PLAYORDER=
